<?xml version="1.0" encoding="UTF-8"?>
<svg xmlns="http://www.w3.org/2000/svg" viewBox="0 0 64 64" width="100%" height="100%">
  <!-- Brain shape - left hemisphere -->
  <path d="M32 8 C20 8 12 18 12 28 C12 38 18 44 24 46 C20 48 20 54 26 56 C30 57 32 52 32 48" fill="#F59E0B" stroke="#D97706" stroke-width="2" stroke-linecap="round" />
  <!-- Brain shape - right hemisphere -->
  <path d="M32 8 C44 8 52 18 52 28 C52 38 46 44 40 46 C44 48 44 54 38 56 C34 57 32 52 32 48" fill="#F59E0B" stroke="#D97706" stroke-width="2" stroke-linecap="round" />
  <!-- Center line -->
  <path d="M32 8 L32 48" fill="none" stroke="#D97706" stroke-width="2" stroke-linecap="round" />
  <!-- Left hemisphere folds -->
  <path d="M18 20 Q22 24 18 28" fill="none" stroke="#D97706" stroke-width="1.5" stroke-linecap="round" />
  <path d="M16 32 Q22 32 24 28" fill="none" stroke="#D97706" stroke-width="1.5" stroke-linecap="round" />
  <path d="M20 40 Q24 42 22 46" fill="none" stroke="#D97706" stroke-width="1.5" stroke-linecap="round" />
  <!-- Right hemisphere folds -->
  <path d="M46 20 Q42 24 46 28" fill="none" stroke="#D97706" stroke-width="1.5" stroke-linecap="round" />
  <path d="M48 32 Q42 32 40 28" fill="none" stroke="#D97706" stroke-width="1.5" stroke-linecap="round" />
  <path d="M44 40 Q40 42 42 46" fill="none" stroke="#D97706" stroke-width="1.5" stroke-linecap="round" />
  <!-- Neural network dots -->
  <circle cx="20" cy="18" r="2" fill="#FCD34D" />
  <circle cx="44" cy="18" r="2" fill="#FCD34D" />
  <circle cx="16" cy="30" r="2" fill="#FCD34D" />
  <circle cx="48" cy="30" r="2" fill="#FCD34D" />
  <circle cx="22" cy="44" r="2" fill="#FCD34D" />
  <circle cx="42" cy="44" r="2" fill="#FCD34D" />
  <!-- Connections -->
  <line x1="20" y1="18" x2="32" y2="28" stroke="#FCD34D" stroke-width="1" opacity="0.5" />
  <line x1="44" y1="18" x2="32" y2="28" stroke="#FCD34D" stroke-width="1" opacity="0.5" />
  <line x1="20" cy="18" x2="16" y2="30" stroke="#FCD34D" stroke-width="1" opacity="0.5" />
  <line x1="44" y1="18" x2="48" y2="30" stroke="#FCD34D" stroke-width="1" opacity="0.5" />
  <line x1="16" y1="30" x2="22" y2="44" stroke="#FCD34D" stroke-width="1" opacity="0.5" />
  <line x1="48" y1="30" x2="42" y2="44" stroke="#FCD34D" stroke-width="1" opacity="0.5" />
</svg>
