<?xml version="1.0" encoding="UTF-8"?>
<svg xmlns="http://www.w3.org/2000/svg" viewBox="0 0 64 64" width="100%" height="100%">
  <!-- Body -->
  <rect x="8" y="6" width="48" height="52" rx="6" fill="#1E40AF" stroke="#1E3A8A" stroke-width="2" />
  <rect x="10" y="8" width="44" height="48" rx="5" fill="#3B82F6" />
  <!-- Screen -->
  <rect x="14" y="12" width="36" height="14" rx="3" fill="#0F172A" />
  <text x="44" y="23" font-family="monospace" font-size="10" font-weight="bold" fill="#60A5FA" text-anchor="end">12,450</text>
  <!-- Solar panel -->
  <rect x="44" y="14" width="6" height="4" rx="1" fill="#1E293B" />
  <line x1="46" y1="14" x2="46" y2="18" stroke="#334155" stroke-width="0.5" />
  <line x1="48" y1="14" x2="48" y2="18" stroke="#334155" stroke-width="0.5" />
  <line x1="50" y1="14" x2="50" y2="18" stroke="#334155" stroke-width="0.5" />
  <!-- Buttons row 1 -->
  <rect x="14" y="30" width="8" height="6" rx="2" fill="#1E293B" />
  <rect x="24" y="30" width="8" height="6" rx="2" fill="#1E293B" />
  <rect x="34" y="30" width="8" height="6" rx="2" fill="#1E293B" />
  <rect x="44" y="30" width="8" height="6" rx="2" fill="#DC2626" />
  <!-- Buttons row 2 -->
  <rect x="14" y="38" width="8" height="6" rx="2" fill="#1E293B" />
  <rect x="24" y="38" width="8" height="6" rx="2" fill="#1E293B" />
  <rect x="34" y="38" width="8" height="6" rx="2" fill="#1E293B" />
  <rect x="44" y="38" width="8" height="6" rx="2" fill="#F59E0B" />
  <!-- Buttons row 3 -->
  <rect x="14" y="46" width="8" height="6" rx="2" fill="#1E293B" />
  <rect x="24" y="46" width="8" height="6" rx="2" fill="#1E293B" />
  <rect x="34" y="46" width="8" height="6" rx="2" fill="#1E293B" />
  <rect x="44" y="46" width="8" height="6" rx="2" fill="#16A34A" />
  <!-- Buttons row 4 -->
  <rect x="14" y="54" width="18" height="4" rx="2" fill="#1E293B" />
  <rect x="34" y="54" width="18" height="4" rx="2" fill="#1E293B" />
</svg>
