<?xml version="1.0" encoding="UTF-8"?>
<svg xmlns="http://www.w3.org/2000/svg" viewBox="0 0 64 64" width="100%" height="100%">
  <!-- Clip body -->
  <rect x="20" y="6" width="24" height="52" rx="4" fill="#7C3AED" stroke="#6D28D9" stroke-width="2" />
  <rect x="22" y="8" width="20" height="48" rx="3" fill="#8B5CF6" />
  <!-- Paper -->
  <rect x="26" y="16" width="12" height="36" rx="2" fill="#ffffff" />
  <!-- Clip mechanism -->
  <rect x="24" y="4" width="16" height="8" rx="4" fill="#4B5563" />
  <rect x="28" y="2" width="8" height="4" rx="2" fill="#6B7280" />
  <rect x="30" y="0" width="4" height="4" rx="2" fill="#9CA3AF" />
  <!-- Paper lines (checkboxes) -->
  <rect x="28" y="20" width="8" height="3" rx="1" fill="#E5E7EB" />
  <rect x="28" y="26" width="8" height="3" rx="1" fill="#E5E7EB" />
  <rect x="28" y="32" width="6" height="3" rx="1" fill="#E5E7EB" />
  <rect x="28" y="38" width="8" height="3" rx="1" fill="#E5E7EB" />
  <rect x="28" y="44" width="4" height="3" rx="1" fill="#E5E7EB" />
  <!-- Check marks -->
  <path d="M28 21.5 L29.5 23 L33 19" fill="none" stroke="#22C55E" stroke-width="1.5" stroke-linecap="round" stroke-linejoin="round" />
  <path d="M28 27.5 L29.5 29 L33 25" fill="none" stroke="#22C55E" stroke-width="1.5" stroke-linecap="round" stroke-linejoin="round" />
</svg>
